<?xml version="1.0" encoding="iso-8859-1"?>
<!-- Generator: Adobe Illustrator 19.0.0, SVG Export Plug-In . SVG Version: 6.00 Build 0)  -->
<svg version="1.1" id="Capa_1" xmlns="http://www.w3.org/2000/svg" xmlns:xlink="http://www.w3.org/1999/xlink" x="0px" y="0px"
	 viewBox="0 0 480 480" style="enable-background:new 0 0 480 480;" xml:space="preserve">
<g>
	<g>
		<path d="M48,384c-26.528,0-48,21.504-48,48c0,26.496,21.472,48,48,48h48v-96H48z"/>
	</g>
</g>
<g>
	<g>
		<path d="M448,0c-10.592,0-20,5.152-25.824,13.088L268.704,222.464l9.888-13.472l63.68,49.408l-17.216,27.136l-65.376-50.72
			l-28.096,38.304l70.112,49.248L475.04,49.12C478.176,44.16,480,38.304,480,32C480,14.336,465.664,0,448,0z"/>
	</g>
</g>
<g>
	<g>
		<path d="M212.672,298.944l-57.568,78.528c-3.008,4.096-7.808,6.528-12.896,6.528H128v96h47.296
			c16.448,0,31.712-8.416,40.544-22.272l68.704-108.32L212.672,298.944z"/>
	</g>
</g>
<g>
	<g>
		<path d="M144,224H16c-8.832,0-16,7.168-16,16v32c0,8.832,7.168,16,16,16h128c8.832,0,16-7.168,16-16v-32
			C160,231.168,152.832,224,144,224z"/>
	</g>
</g>
<g>
</g>
<g>
</g>
<g>
</g>
<g>
</g>
<g>
</g>
<g>
</g>
<g>
</g>
<g>
</g>
<g>
</g>
<g>
</g>
<g>
</g>
<g>
</g>
<g>
</g>
<g>
</g>
<g>
</g>
</svg>
